<svg xmlns="http://www.w3.org/2000/svg" id="b82ffadf-cd82-44b9-9c6d-e262570a0ac0" width="752" height="651" data-name="Layer 1" viewBox="0 0 752 651"><title>blooming</title><ellipse cx="359" cy="558" fill="#f2f2f2" rx="359" ry="93"/><circle cx="495.603" cy="173.285" r="61.186" fill="#4fd1c5"/><circle cx="391.603" cy="317.285" r="61.186" fill="#4fd1c5"/><ellipse cx="392" cy="539" fill="none" stroke="#3f3d56" stroke-miterlimit="10" stroke-width="2" rx="359" ry="93"/><circle cx="124.805" cy="429.5" r="79" fill="#2f2e41"/><rect width="24" height="43" x="88.805" y="491.5" fill="#2f2e41"/><rect width="24" height="43" x="136.805" y="491.5" fill="#2f2e41"/><ellipse cx="108.805" cy="535" fill="#2f2e41" rx="20" ry="7.5"/><ellipse cx="156.805" cy="534" fill="#2f2e41" rx="20" ry="7.5"/><circle cx="126.805" cy="409.5" r="27" fill="#fff"/><circle cx="126.805" cy="409.5" r="9" fill="#3f3d56"/><path fill="#4fd1c5" d="M272.67189,480.53228c-6.37889-28.56758,14.01185-57.43392,45.544-64.47477s62.2651,10.41,68.644,38.9776-14.51861,39.10379-46.05075,46.14464S279.05077,509.09986,272.67189,480.53228Z" transform="translate(-224.5 -124.5)"/><ellipse cx="418.52" cy="526.844" fill="#2f2e41" rx="39.5" ry="12.4" transform="translate(-398.04153 82.67744) rotate(-23.17116)"/><ellipse cx="270.52" cy="579.844" fill="#2f2e41" rx="39.5" ry="12.4" transform="translate(-430.83457 28.71783) rotate(-23.17116)"/><path fill="#fff" d="M395.30455,577c0,7.732-19.90861,23-42,23s-43-14.268-43-22,20.90861-6,43-6S395.30455,569.268,395.30455,577Z" transform="translate(-224.5 -124.5)"/><circle cx="274.603" cy="432.285" r="61.186" fill="#4fd1c5"/><line x1="274.549" x2="274.549" y1="542.937" y2="431.949" fill="#3f3d56" stroke="#3f3d56" stroke-miterlimit="10" stroke-width="2"/><circle cx="274.549" cy="431.949" r="15.695" fill="#3f3d56"/><path fill="#3f3d56" d="M499.04857,624.85322s-2.2422-48.2248-48.20716-42.61932" transform="translate(-224.5 -124.5)"/><line x1="495.641" x2="495.641" y1="543.716" y2="173.51" fill="#3f3d56" stroke="#3f3d56" stroke-miterlimit="10" stroke-width="2"/><circle cx="495.641" cy="173.335" r="15.695" fill="#3f3d56"/><circle cx="447.434" cy="441.18" r="15.695" fill="#3f3d56"/><path fill="#3f3d56" d="M720.14133,378.00726s-2.24219-48.2248-48.20715-42.61932" transform="translate(-224.5 -124.5)"/><path fill="#3f3d56" d="M720.14133,514.71915s-2.24219-48.22481-48.20715-42.61933" transform="translate(-224.5 -124.5)"/><path fill="none" stroke="#3f3d56" stroke-miterlimit="10" stroke-width="2" d="M720.14133,663.9015s10.08987-93.73668-48.20715-98.22106" transform="translate(-224.5 -124.5)"/><circle cx="543.855" cy="441.18" r="15.695" fill="#3f3d56"/><path fill="none" stroke="#3f3d56" stroke-miterlimit="10" stroke-width="2" d="M720.14821,663.9015s-10.08987-93.73668,48.20715-98.22106" transform="translate(-224.5 -124.5)"/><circle cx="544.811" cy="293.952" r="15.695" fill="#3f3d56"/><path fill="none" stroke="#3f3d56" stroke-miterlimit="10" stroke-width="2" d="M721.10423,511.67332s-10.08987-88.73668,48.20716-93.22106" transform="translate(-224.5 -124.5)"/><line x1="391.659" x2="391.659" y1="543.194" y2="317.217" fill="#3f3d56" stroke="#3f3d56" stroke-miterlimit="10" stroke-width="2"/><circle cx="391.659" cy="317.217" r="15.695" fill="#3f3d56"/><path fill="#3f3d56" d="M616.15878,505.63689s-2.24219-48.22481-48.20715-42.61933" transform="translate(-224.5 -124.5)"/><path fill="none" stroke="#3f3d56" stroke-miterlimit="10" stroke-width="2" d="M616.15878,663.37952s10.08987-92.73668-48.20715-97.22107" transform="translate(-224.5 -124.5)"/><circle cx="343.452" cy="441.658" r="15.695" fill="#3f3d56"/><line x1="218.507" x2="542.507" y1="542.976" y2="542.976" fill="none" stroke="#3f3d56" stroke-miterlimit="10" stroke-width="2"/><circle cx="661" cy="351" r="32" fill="#f2f2f2"/><circle cx="157" cy="151" r="32" fill="#f2f2f2"/><circle cx="480" cy="32" r="32" fill="#f2f2f2"/></svg>